<?xml version="1.0" encoding="UTF-8" standalone="no" ?>
<!DOCTYPE svg PUBLIC "-//W3C//DTD SVG 1.1//EN" "http://www.w3.org/Graphics/SVG/1.1/DTD/svg11.dtd">
<svg xmlns="http://www.w3.org/2000/svg" xmlns:xlink="http://www.w3.org/1999/xlink" version="1.1" width="1280" height="1024" viewBox="0 0 1280 1024" xml:space="preserve">
<desc>Created with Fabric.js 5.3.0</desc>
<defs>
</defs>
<g transform="matrix(1 0 0 1 640 512)" id="background-logo"  >
<rect style="stroke: none; stroke-width: 0; stroke-dasharray: none; stroke-linecap: butt; stroke-dashoffset: 0; stroke-linejoin: miter; stroke-miterlimit: 4; fill: rgb(255,255,255); fill-opacity: 0; fill-rule: nonzero; opacity: 1;"  paint-order="stroke"  x="-640" y="-512" rx="0" ry="0" width="1280" height="1024" />
</g>
<g transform="matrix(1.9211538461538462 0 0 1.9211538461538462 641.9158591829225 606.9341506927033)" id="text-logo"  >
<g style=""  paint-order="stroke"   >
		<g transform="matrix(1 0 0 1 0 0)" id="text-logo-path-0"  >
<path style="stroke: none; stroke-width: 0.4680851063829785; stroke-dasharray: none; stroke-linecap: butt; stroke-dashoffset: 0; stroke-linejoin: miter; stroke-miterlimit: 4; fill: rgb(62,201,168); fill-rule: nonzero; opacity: 1;"  paint-order="stroke"  transform=" translate(-143.96999999999997, 14.655000000000001)" d="M 22.97 -9.59 C 22.97 -15.05 18.48 -17.07 13.73 -18.39 L 11.97 -18.83 C 10.74 -19.18 9.24 -19.89 9.24 -21.38 C 9.24 -23.06 11.09 -23.76 12.58 -23.76 C 13.55 -23.76 14.61 -23.58 15.58 -23.23 L 16.81 -22.79 C 17.16 -22.7 17.51 -22.62 17.86 -22.62 C 19.62 -22.62 20.94 -24.11 20.94 -25.96 C 20.94 -29.39 15.31 -30.1 12.67 -30.1 C 7.22 -30.1 2.02 -26.58 2.02 -20.68 C 2.02 -15.31 5.46 -13.82 9.94 -12.5 C 11.53 -12.06 13.29 -11.62 14.7 -10.74 C 15.4 -10.3 15.75 -9.5 15.75 -8.62 C 15.75 -6.6 13.82 -5.54 12.06 -5.54 C 10.91 -5.54 9.77 -5.81 8.8 -6.25 L 6.42 -7.13 C 5.9 -7.3 5.37 -7.39 4.75 -7.39 C 3.17 -7.39 1.85 -5.9 1.85 -4.4 C 1.85 -2.73 2.9 -1.5 4.31 -0.79 C 6.69 0.35 9.42 0.79 12.06 0.79 C 15.05 0.79 18.39 -0.09 20.5 -2.38 C 22.26 -4.31 22.97 -7.04 22.97 -9.59 Z M 56.36 -26.31 C 56.36 -28.34 54.87 -29.39 53.02 -29.39 L 38.41 -29.39 C 36.56 -29.39 35.07 -28.25 35.07 -26.31 C 35.07 -24.38 36.56 -23.32 38.41 -23.32 L 42.37 -23.32 L 42.37 -3.34 C 42.37 -1.32 43.6 0.44 45.8 0.44 C 48 0.44 49.15 -1.32 49.15 -3.34 L 49.15 -23.32 L 53.02 -23.32 C 54.87 -23.32 56.36 -24.46 56.36 -26.31 Z M 76.47 -2.9 C 76.47 -4.84 74.89 -6.42 72.95 -6.42 C 70.93 -6.42 69.34 -4.84 69.34 -2.9 C 69.34 -0.88 70.93 0.79 72.95 0.79 C 74.89 0.79 76.47 -0.88 76.47 -2.9 Z M 128.04 -9.33 L 128.04 -26.05 C 128.04 -28.07 126.81 -29.74 124.61 -29.74 C 122.41 -29.74 121.26 -28.07 121.26 -26.05 L 121.26 -9.33 C 121.26 -7.83 121 -5.54 118.98 -5.54 C 118.27 -5.54 117.57 -5.98 116.95 -6.34 C 116.25 -6.69 115.54 -7.04 114.84 -7.04 L 114.58 -7.04 C 112.99 -6.95 111.67 -5.46 111.67 -3.87 C 111.67 -0.18 116.78 0.79 119.5 0.79 C 121.88 0.79 124.52 0 126.1 -1.94 C 127.78 -3.96 128.04 -6.78 128.04 -9.33 Z M 170.5 -14.87 C 170.5 -23.5 164.78 -30.1 155.98 -30.1 C 152.37 -30.1 148.94 -28.86 146.3 -26.49 C 142.96 -23.5 141.46 -19.27 141.46 -14.87 C 141.46 -10.74 142.6 -6.69 145.51 -3.61 C 148.24 -0.7 152.02 0.79 155.98 0.79 C 159.59 0.79 163.02 -0.35 165.66 -2.82 C 169.09 -5.9 170.5 -10.38 170.5 -14.87 Z M 163.28 -14.87 C 163.28 -10.21 161.35 -5.28 155.98 -5.28 C 150.79 -5.28 148.68 -10.3 148.68 -14.87 C 148.68 -17.25 149.2 -19.89 150.88 -21.74 C 152.11 -23.14 154.04 -24.02 155.89 -24.02 C 161.08 -24.02 163.28 -19.45 163.28 -14.87 Z M 210.06 -3.34 L 210.06 -26.05 C 210.06 -28.07 208.82 -29.83 206.62 -29.83 C 204.51 -29.83 203.28 -28.07 203.28 -26.05 L 203.28 -18.04 L 190.78 -18.04 L 190.78 -26.05 C 190.78 -28.07 189.64 -29.83 187.44 -29.83 C 185.24 -29.83 184.1 -28.07 184.1 -26.05 L 184.1 -3.34 C 184.1 -1.32 185.33 0.44 187.44 0.44 C 189.64 0.44 190.78 -1.32 190.78 -3.34 L 190.78 -12.06 L 203.28 -12.06 L 203.28 -3.34 C 203.28 -1.32 204.51 0.44 206.62 0.44 C 208.82 0.44 210.06 -1.32 210.06 -3.34 Z M 250.84 -3.43 L 250.84 -26.05 C 250.84 -28.07 249.61 -29.83 247.5 -29.83 C 245.3 -29.83 244.07 -28.07 244.07 -26.05 L 244.07 -11.97 L 231.13 -28.34 C 230.34 -29.3 229.55 -29.83 228.32 -29.83 C 226.29 -29.83 224.97 -28.25 224.97 -26.31 L 224.97 -3.34 C 224.97 -1.32 226.2 0.44 228.4 0.44 C 230.52 0.44 231.75 -1.32 231.75 -3.34 L 231.75 -17.78 L 245.04 -0.88 C 245.65 0 246.62 0.44 247.68 0.44 C 248.56 0.44 249.35 0.09 249.96 -0.62 C 250.67 -1.41 250.84 -2.38 250.84 -3.43 Z M 286.09 -9.59 C 286.09 -15.05 281.6 -17.07 276.85 -18.39 L 275.09 -18.83 C 273.86 -19.18 272.36 -19.89 272.36 -21.38 C 272.36 -23.06 274.21 -23.76 275.7 -23.76 C 276.67 -23.76 277.73 -23.58 278.7 -23.23 L 279.93 -22.79 C 280.28 -22.7 280.63 -22.62 280.98 -22.62 C 282.74 -22.62 284.06 -24.11 284.06 -25.96 C 284.06 -29.39 278.43 -30.1 275.79 -30.1 C 270.34 -30.1 265.14 -26.58 265.14 -20.68 C 265.14 -15.31 268.58 -13.82 273.06 -12.5 C 274.65 -12.06 276.41 -11.62 277.82 -10.74 C 278.52 -10.3 278.87 -9.5 278.87 -8.62 C 278.87 -6.6 276.94 -5.54 275.18 -5.54 C 274.03 -5.54 272.89 -5.81 271.92 -6.25 L 269.54 -7.13 C 269.02 -7.3 268.49 -7.39 267.87 -7.39 C 266.29 -7.39 264.97 -5.9 264.97 -4.4 C 264.97 -2.73 266.02 -1.5 267.43 -0.79 C 269.81 0.35 272.54 0.79 275.18 0.79 C 278.17 0.79 281.51 -0.09 283.62 -2.38 C 285.38 -4.31 286.09 -7.04 286.09 -9.59 Z" stroke-linecap="round" />
</g>
</g>
</g>
<g transform="matrix(1.9211538461538462 0 0 1.9211538461538462 639.550918798307 425.10894082198956)" id="tagline-83fdfb2a-8044-4ad8-b129-1c6be14b1c43-logo"  >
<g style=""  paint-order="stroke"   >
		<g transform="matrix(1 0 0 1 0 0)" id="tagline-83fdfb2a-8044-4ad8-b129-1c6be14b1c43-logo-path-0"  >
<linearGradient id="SVGID_461462" gradientUnits="userSpaceOnUse" gradientTransform="matrix(1 0 0 1 5.1200000000000045 -108.5)"  x1="-5.270003547668466" y1="-27.766699999999986" x2="-5.270003547668466" y2="147.2333">
<stop offset="0%" style="stop-color:rgb(66,230,149);stop-opacity: 1"/>
<stop offset="100%" style="stop-color:rgb(59,178,184);stop-opacity: 1"/>
</linearGradient>
<path style="stroke: rgb(255,255,255); stroke-width: 0; stroke-dasharray: none; stroke-linecap: butt; stroke-dashoffset: 0; stroke-linejoin: miter; stroke-miterlimit: 4; fill: url(#SVGID_461462); fill-rule: nonzero; opacity: 1;"  paint-order="stroke"  transform=" translate(-74.325, 54.25)" d="M 20.61 -44.17 L 48.52 -44.17 L 48.52 -17.05 L 20.61 -17.05 C 13.64 -17.05 8.68 -18.6 5.12 -21.7 L 5.12 0 L 53.16 0 C 61.69 0 68.67 -6.97 68.67 -15.5 L 68.67 -48.83 C 68.67 -57.35 61.69 -64.33 53.16 -64.33 L 25.27 -64.33 L 25.27 -91.45 L 53.16 -91.45 C 60.14 -91.45 65.1 -89.9 68.67 -86.8 L 68.67 -108.5 L 20.61 -108.5 C 12.09 -108.5 5.12 -101.53 5.12 -93 L 5.12 -59.67 C 5.12 -51.15 12.09 -44.17 20.61 -44.17 Z M 118.73 -93 L 118.73 -17.05 L 95.48 -17.05 L 95.48 -35.65 C 95.48 -42.63 97.03 -47.59 100.13 -51.15 L 70.68 -51.15 C 73.78 -47.59 75.33 -42.63 75.33 -35.65 L 75.33 -15.5 C 75.33 -6.97 82.3 0 90.83 0 L 123.38 0 C 131.91 0 138.88 -6.97 138.88 -15.5 L 138.88 -93 C 138.88 -99.97 140.43 -104.94 143.53 -108.5 L 114.08 -108.5 C 117.18 -104.94 118.73 -99.97 118.73 -93 Z" stroke-linecap="round" />
</g>
</g>
</g>
<g transform="matrix(1.9211538461538462 0 0 1.9211538461538462 641.6507399521531 682.0722107418034)" id="tagline-a268ac17-6d42-4d14-bbff-e2fde401ea1b-logo"  >
<g style=""  paint-order="stroke"   >
		<g transform="matrix(1 0 0 1 0 0)" id="tagline-a268ac17-6d42-4d14-bbff-e2fde401ea1b-logo-path-0"  >
<path style="stroke: none; stroke-width: 0.2553191489361701; stroke-dasharray: none; stroke-linecap: butt; stroke-dashoffset: 0; stroke-linejoin: miter; stroke-miterlimit: 4; fill: rgb(62,201,168); fill-rule: nonzero; opacity: 1;"  paint-order="stroke"  transform=" translate(-92.96, 8.040000000000001)" d="M 13.3 -10.75 C 13.3 -12.19 12.67 -13.68 11.62 -14.69 C 10.56 -15.74 9.02 -16.03 7.54 -16.03 L 3.79 -16.03 C 2.4 -16.03 1.58 -15.17 1.58 -13.78 L 1.58 -1.82 C 1.58 -0.72 2.26 0.24 3.41 0.24 C 4.61 0.24 5.23 -0.72 5.23 -1.82 L 5.23 -5.28 L 8.02 -5.28 C 9.6 -5.28 11.09 -5.76 12.1 -6.96 C 12.96 -8.02 13.3 -9.41 13.3 -10.75 Z M 9.55 -10.56 C 9.55 -10.03 9.31 -9.5 8.93 -9.12 C 8.45 -8.59 7.78 -8.45 7.1 -8.45 L 5.23 -8.45 L 5.23 -12.82 L 7.3 -12.82 C 8.54 -12.82 9.46 -12 9.55 -10.75 Z M 33.86 -1.25 L 33.86 -1.54 C 33.86 -1.78 33.82 -2.16 33.72 -2.4 L 29.4 -14.26 C 28.97 -15.46 28.01 -16.32 26.71 -16.32 C 25.42 -16.32 24.41 -15.46 23.98 -14.26 L 19.66 -2.4 C 19.61 -2.16 19.46 -1.73 19.46 -1.44 C 19.46 -1.39 19.51 -1.3 19.51 -1.25 C 19.66 -0.24 20.66 0.24 21.62 0.24 C 22.54 0.24 23.02 -0.86 23.26 -1.68 L 23.64 -3.07 L 29.78 -3.07 L 30.26 -1.3 C 30.46 -0.58 31.03 0.24 31.8 0.24 C 32.76 0.24 33.77 -0.24 33.86 -1.25 Z M 28.68 -6.34 L 24.79 -6.34 L 26.71 -12.43 Z M 52.8 -10.75 C 52.8 -12.19 52.18 -13.68 51.12 -14.69 C 50.06 -15.74 48.53 -16.03 47.04 -16.03 L 43.3 -16.03 C 41.9 -16.03 41.09 -15.17 41.09 -13.78 L 41.09 -1.82 C 41.09 -0.72 41.76 0.24 42.91 0.24 C 44.11 0.24 44.74 -0.72 44.74 -1.82 L 44.74 -5.28 L 47.52 -5.28 C 49.1 -5.28 50.59 -5.76 51.6 -6.96 C 52.46 -8.02 52.8 -9.41 52.8 -10.75 Z M 49.06 -10.56 C 49.06 -10.03 48.82 -9.5 48.43 -9.12 C 47.95 -8.59 47.28 -8.45 46.61 -8.45 L 44.74 -8.45 L 44.74 -12.82 L 46.8 -12.82 C 48.05 -12.82 48.96 -12 49.06 -10.75 Z M 69.29 -1.63 C 69.29 -2.74 68.47 -3.31 67.46 -3.31 L 63.67 -3.31 L 63.67 -6.38 L 67.08 -6.38 C 68.09 -6.38 68.9 -7.01 68.9 -8.02 C 68.9 -9.12 68.09 -9.7 67.08 -9.7 L 63.67 -9.7 L 63.67 -12.72 L 67.46 -12.72 C 68.47 -12.72 69.29 -13.34 69.29 -14.35 C 69.29 -15.46 68.47 -16.03 67.46 -16.03 L 62.23 -16.03 C 60.79 -16.03 59.98 -15.17 59.98 -13.78 L 59.98 -2.26 C 59.98 -0.82 60.79 0 62.23 0 L 67.46 0 C 68.47 0 69.29 -0.62 69.29 -1.63 Z M 88.66 -1.54 L 88.66 -1.92 C 88.51 -2.4 88.18 -2.83 87.79 -3.22 L 84.67 -6.62 C 85.63 -6.86 86.5 -7.15 87.22 -7.82 C 88.13 -8.69 88.46 -9.94 88.46 -11.18 C 88.46 -12.53 87.84 -13.87 86.78 -14.74 C 85.68 -15.65 84.24 -15.98 82.85 -15.98 L 79.15 -15.98 C 77.71 -15.98 76.9 -15.17 76.9 -13.78 L 76.9 -1.82 C 76.9 -0.72 77.57 0.24 78.77 0.24 C 79.92 0.24 80.59 -0.72 80.59 -1.82 L 80.59 -6.53 L 85.34 -0.58 C 85.78 0.05 86.45 0.24 87.17 0.24 C 87.98 0.24 88.66 -0.67 88.66 -1.54 Z M 84.86 -10.9 C 84.86 -9.79 83.95 -9.07 82.85 -9.07 L 80.59 -9.07 L 80.59 -12.82 L 82.8 -12.82 C 83.86 -12.82 84.86 -12 84.86 -10.9 Z M 126.77 -1.63 L 126.77 -2.16 L 124.66 -14.35 C 124.46 -15.5 123.31 -16.22 122.16 -16.22 C 121.01 -16.22 120.14 -15.36 119.81 -14.35 L 117.31 -6.43 L 114.62 -14.69 C 114.29 -15.74 113.28 -16.22 112.22 -16.22 C 111.65 -16.22 111.07 -16.03 110.59 -15.65 C 110.16 -15.26 109.97 -14.74 109.87 -14.16 L 107.9 -2.11 C 107.9 -2.02 107.86 -1.82 107.86 -1.73 C 107.86 -0.77 108.38 0.24 109.44 0.24 C 110.59 0.24 111.36 -0.43 111.55 -1.54 L 112.8 -9.46 L 115.34 -1.54 C 115.68 -0.43 116.21 0.24 117.41 0.24 C 118.9 0.24 119.18 -0.72 119.57 -1.97 L 121.82 -9.46 L 123.07 -1.92 C 123.12 -1.39 123.22 -0.86 123.55 -0.43 C 123.94 0.1 124.66 0.24 125.28 0.24 C 126.29 0.24 126.77 -0.67 126.77 -1.63 Z M 147.24 -1.25 L 147.24 -1.54 C 147.24 -1.78 147.19 -2.16 147.1 -2.4 L 142.78 -14.26 C 142.34 -15.46 141.38 -16.32 140.09 -16.32 C 138.79 -16.32 137.78 -15.46 137.35 -14.26 L 133.03 -2.4 C 132.98 -2.16 132.84 -1.73 132.84 -1.44 C 132.84 -1.39 132.89 -1.3 132.89 -1.25 C 133.03 -0.24 134.04 0.24 135 0.24 C 135.91 0.24 136.39 -0.86 136.63 -1.68 L 137.02 -3.07 L 143.16 -3.07 L 143.64 -1.3 C 143.83 -0.58 144.41 0.24 145.18 0.24 C 146.14 0.24 147.14 -0.24 147.24 -1.25 Z M 142.06 -6.34 L 138.17 -6.34 L 140.09 -12.43 Z M 166.13 -1.54 L 166.13 -1.92 C 165.98 -2.4 165.65 -2.83 165.26 -3.22 L 162.14 -6.62 C 163.1 -6.86 163.97 -7.15 164.69 -7.82 C 165.6 -8.69 165.94 -9.94 165.94 -11.18 C 165.94 -12.53 165.31 -13.87 164.26 -14.74 C 163.15 -15.65 161.71 -15.98 160.32 -15.98 L 156.62 -15.98 C 155.18 -15.98 154.37 -15.17 154.37 -13.78 L 154.37 -1.82 C 154.37 -0.72 155.04 0.24 156.24 0.24 C 157.39 0.24 158.06 -0.72 158.06 -1.82 L 158.06 -6.53 L 162.82 -0.58 C 163.25 0.05 163.92 0.24 164.64 0.24 C 165.46 0.24 166.13 -0.67 166.13 -1.54 Z M 162.34 -10.9 C 162.34 -9.79 161.42 -9.07 160.32 -9.07 L 158.06 -9.07 L 158.06 -12.82 L 160.27 -12.82 C 161.33 -12.82 162.34 -12 162.34 -10.9 Z M 184.34 -14.35 C 184.34 -15.46 183.53 -16.03 182.52 -16.03 L 174.55 -16.03 C 173.54 -16.03 172.73 -15.41 172.73 -14.35 C 172.73 -13.3 173.54 -12.72 174.55 -12.72 L 176.71 -12.72 L 176.71 -1.82 C 176.71 -0.72 177.38 0.24 178.58 0.24 C 179.78 0.24 180.41 -0.72 180.41 -1.82 L 180.41 -12.72 L 182.52 -12.72 C 183.53 -12.72 184.34 -13.34 184.34 -14.35 Z" stroke-linecap="round" />
</g>
</g>
</g>
</svg>